<svg xmlns="http://www.w3.org/2000/svg" viewBox="0 0 400 300" width="400" height="300">
  <defs>
    <radialGradient id="sbg5" cx="55%" cy="35%" r="65%">
      <stop offset="0%" stop-color="#2A1A10"/>
      <stop offset="100%" stop-color="#080404"/>
    </radialGradient>
    <radialGradient id="sk_s5" cx="45%" cy="35%" r="55%">
      <stop offset="0%" stop-color="#C8885A"/>
      <stop offset="100%" stop-color="#9A6038"/>
    </radialGradient>
  </defs>
  <rect width="400" height="300" fill="url(#sbg5)"/>
  <circle cx="260" cy="100" r="80" fill="#FFB800" opacity="0.07"/>
  <!-- Neck / body -->
  <rect x="176" y="218" width="48" height="50" rx="8" fill="url(#sk_s5)"/>
  <ellipse cx="200" cy="286" rx="78" ry="36" fill="#0D1626"/>
  <!-- Hair - wavy medium -->
  <path d="M158 135 Q162 92 200 87 Q238 92 242 135 Q235 112 215 106 Q200 102 185 106 Q165 112 158 135Z" fill="#120804"/>
  <!-- Face - confrontational angle -->
  <ellipse cx="200" cy="175" rx="46" ry="50" fill="url(#sk_s5)"/>
  <!-- 5 o'clock shadow -->
  <ellipse cx="200" cy="198" rx="32" ry="20" fill="#5A2A10" opacity="0.3"/>
  <!-- Eyes - wide, angry -->
  <ellipse cx="184" cy="169" rx="9" ry="7.5" fill="#0A0402"/>
  <ellipse cx="216" cy="169" rx="9" ry="7.5" fill="#0A0402"/>
  <circle cx="184" cy="169" r="5" fill="#1A0802"/>
  <circle cx="216" cy="169" r="5" fill="#1A0802"/>
  <circle cx="185.5" cy="167" r="2.2" fill="white" opacity="0.85"/>
  <circle cx="217.5" cy="167" r="2.2" fill="white" opacity="0.85"/>
  <!-- Angry brow -->
  <path d="M174 159 Q184 154 194 157" stroke="#0A0402" stroke-width="4" fill="none" stroke-linecap="round"/>
  <path d="M206 157 Q216 154 226 159" stroke="#0A0402" stroke-width="4" fill="none" stroke-linecap="round"/>
  <!-- Frown lines -->
  <path d="M193 157 Q196 152 199 154" stroke="#8A5030" stroke-width="1.5" fill="none" opacity="0.5"/>
  <path d="M201 154 Q204 152 207 157" stroke="#8A5030" stroke-width="1.5" fill="none" opacity="0.5"/>
  <!-- Nose flared -->
  <ellipse cx="196" cy="183" rx="6" ry="4" fill="#8A5030" opacity="0.5"/>
  <ellipse cx="204" cy="183" rx="6" ry="4" fill="#8A5030" opacity="0.5"/>
  <!-- Open mouth - speaking intensely -->
  <path d="M186 200 Q200 193 214 200 Q212 210 200 214 Q188 210 186 200Z" fill="#1A0804"/>
  <path d="M186 200 Q200 197 214 200" stroke="#8A4A28" stroke-width="1" fill="none"/>
  <!-- Teeth slightly visible -->
  <path d="M192 202 Q200 200 208 202" stroke="white" stroke-width="1.5" fill="none" opacity="0.6"/>
  <!-- Neck tension veins subtle -->
  <path d="M188 220 Q190 230 192 238" stroke="#8A5030" stroke-width="1" fill="none" opacity="0.2"/>
</svg>