<?xml version="1.0" encoding="UTF-8" standalone="no"?>

<svg width="1600" height="500" viewBox="0 0 1600 500" fill="none" xmlns="http://www.w3.org/2000/svg">
  <rect width="1600" height="500" fill="#FFFFFF"/>

  <text x="120" y="315"
        font-family="Inter, Arial, Helvetica, sans-serif"
        font-size="180"
        font-weight="900"
        letter-spacing="1"
        fill="#111111">TAKE</text>

  <g transform="translate(860,145)">
    <path d="M18 0H142C146.418 0 150 3.58172 150 8V38
             C150 60 139 79 121 94L102 110L121 126
             C139 141 150 160 150 182V212
             C150 216.418 146.418 220 142 220H18
             C13.5817 220 10 216.418 10 212V182
             C10 160 21 141 39 126L58 110L39 94
             C21 79 10 60 10 38V8C10 3.58172 13.5817 0 18 0Z"
          fill="#FFFFFF" stroke="#111111" stroke-width="10" stroke-linejoin="round"/>

    <path d="M34 24H126C124 42 114 56 101 68L86 82L69 82L54 68C42 57 35 42 34 24Z"
          fill="#F4C20D"/>

    <rect x="74" y="82" width="12" height="56" rx="6" fill="#F4C20D"/>

    <path d="M54 152L69 138H86L101 152C114 164 124 178 126 196H34C36 178 46 164 54 152Z"
          fill="#F4C20D"/>
  </g>

  <text x="1035" y="315"
        font-family="Inter, Arial, Helvetica, sans-serif"
        font-size="180"
        font-weight="900"
        letter-spacing="1"
        fill="#111111">60</text>
</svg>
